TITLE ""
FILE "2Q_t_0971-0987.mp3" MP3
  TRACK 01 AUDIO
    TITLE "2Q_t_0971-0987_01"
    INDEX 01 00:00:00
  TRACK 02 AUDIO
    TITLE "2Q_t_0971-0987_02"
    INDEX 01 00:00:10
  TRACK 03 AUDIO
    TITLE "2Q_t_0971-0987_03"
    INDEX 01 00:01:18
  TRACK 04 AUDIO
    TITLE "2Q_t_0971-0987_04"
    INDEX 01 00:01:65
  TRACK 05 AUDIO
    TITLE "2Q_t_0971-0987_05"
    INDEX 01 00:05:17
  TRACK 06 AUDIO
    TITLE "2Q_t_0971-0987_06"
    INDEX 01 00:05:60
  TRACK 07 AUDIO
    TITLE "2Q_t_0971-0987_07"
    INDEX 01 00:07:16
  TRACK 08 AUDIO
    TITLE "2Q_t_0971-0987_08"
    INDEX 01 00:07:71
  TRACK 09 AUDIO
    TITLE "2Q_t_0971-0987_09"
    INDEX 01 00:10:42
  TRACK 10 AUDIO
    TITLE "2Q_t_0971-0987_10"
    INDEX 01 00:11:10
  TRACK 11 AUDIO
    TITLE "2Q_t_0971-0987_11"
    INDEX 01 00:12:33
  TRACK 12 AUDIO
    TITLE "2Q_t_0971-0987_12"
    INDEX 01 00:13:03
  TRACK 13 AUDIO
    TITLE "2Q_t_0971-0987_13"
    INDEX 01 00:14:16
  TRACK 14 AUDIO
    TITLE "2Q_t_0971-0987_14"
    INDEX 01 00:14:65
  TRACK 15 AUDIO
    TITLE "2Q_t_0971-0987_15"
    INDEX 01 00:16:03
  TRACK 16 AUDIO
    TITLE "2Q_t_0971-0987_16"
    INDEX 01 00:16:49
  TRACK 17 AUDIO
    TITLE "2Q_t_0971-0987_17"
    INDEX 01 00:17:58
  TRACK 18 AUDIO
    TITLE "2Q_t_0971-0987_18"
    INDEX 01 00:18:30
  TRACK 19 AUDIO
    TITLE "2Q_t_0971-0987_19"
    INDEX 01 00:21:28
  TRACK 20 AUDIO
    TITLE "2Q_t_0971-0987_20"
    INDEX 01 00:21:73
  TRACK 21 AUDIO
    TITLE "2Q_t_0971-0987_21"
    INDEX 01 00:23:31
  TRACK 22 AUDIO
    TITLE "2Q_t_0971-0987_22"
    INDEX 01 00:24:13
  TRACK 23 AUDIO
    TITLE "2Q_t_0971-0987_23"
    INDEX 01 00:25:22
  TRACK 24 AUDIO
    TITLE "2Q_t_0971-0987_24"
    INDEX 01 00:25:67
  TRACK 25 AUDIO
    TITLE "2Q_t_0971-0987_25"
    INDEX 01 00:27:13
  TRACK 26 AUDIO
    TITLE "2Q_t_0971-0987_26"
    INDEX 01 00:27:60
  TRACK 27 AUDIO
    TITLE "2Q_t_0971-0987_27"
    INDEX 01 00:31:70
  TRACK 28 AUDIO
    TITLE "2Q_t_0971-0987_28"
    INDEX 01 00:32:40
  TRACK 29 AUDIO
    TITLE "2Q_t_0971-0987_29"
    INDEX 01 00:33:35
  TRACK 30 AUDIO
    TITLE "2Q_t_0971-0987_30"
    INDEX 01 00:34:17
  TRACK 31 AUDIO
    TITLE "2Q_t_0971-0987_31"
    INDEX 01 00:35:56
  TRACK 32 AUDIO
    TITLE "2Q_t_0971-0987_32"
    INDEX 01 00:36:24
  TRACK 33 AUDIO
    TITLE "2Q_t_0971-0987_33"
    INDEX 01 00:37:47
  TRACK 34 AUDIO
    TITLE "2Q_t_0971-0987_34"
    INDEX 01 00:38:21
  TRACK 35 AUDIO
    TITLE "2Q_t_0971-0987_35"
    INDEX 01 00:39:51
  TRACK 36 AUDIO
    TITLE "2Q_t_0971-0987_36"
    INDEX 01 00:40:18
  TRACK 37 AUDIO
    TITLE "2Q_t_0971-0987_37"
    INDEX 01 00:41:33
  TRACK 38 AUDIO
    TITLE "2Q_t_0971-0987_38"
    INDEX 01 00:42:07
  TRACK 39 AUDIO
    TITLE "2Q_t_0971-0987_39"
    INDEX 01 00:43:47
  TRACK 40 AUDIO
    TITLE "2Q_t_0971-0987_40"
    INDEX 01 00:44:17
  TRACK 41 AUDIO
    TITLE "2Q_t_0971-0987_41"
    INDEX 01 00:45:34
  TRACK 42 AUDIO
    TITLE "2Q_t_0971-0987_42"
    INDEX 01 00:46:06
  TRACK 43 AUDIO
    TITLE "2Q_t_0971-0987_43"
    INDEX 01 00:48:56
  TRACK 44 AUDIO
    TITLE "2Q_t_0971-0987_44"
    INDEX 01 00:49:26
  TRACK 45 AUDIO
    TITLE "2Q_t_0971-0987_45"
    INDEX 01 00:50:51
  TRACK 46 AUDIO
    TITLE "2Q_t_0971-0987_46"
    INDEX 01 00:51:23
  TRACK 47 AUDIO
    TITLE "2Q_t_0971-0987_47"
    INDEX 01 00:53:63
  TRACK 48 AUDIO
    TITLE "2Q_t_0971-0987_48"
    INDEX 01 00:54:35
  TRACK 49 AUDIO
    TITLE "2Q_t_0971-0987_49"
    INDEX 01 00:55:54
  TRACK 50 AUDIO
    TITLE "2Q_t_0971-0987_50"
    INDEX 01 00:56:28
  TRACK 51 AUDIO
    TITLE "2Q_t_0971-0987_51"
    INDEX 01 00:57:71
  TRACK 52 AUDIO
    TITLE "2Q_t_0971-0987_52"
    INDEX 01 00:58:41
  TRACK 53 AUDIO
    TITLE "2Q_t_0971-0987_53"
    INDEX 01 01:00:03
  TRACK 54 AUDIO
    TITLE "2Q_t_0971-0987_54"
    INDEX 01 01:00:54
  TRACK 55 AUDIO
    TITLE "2Q_t_0971-0987_55"
    INDEX 01 01:03:30
  TRACK 56 AUDIO
    TITLE "2Q_t_0971-0987_56"
    INDEX 01 01:04:01
  TRACK 57 AUDIO
    TITLE "2Q_t_0971-0987_57"
    INDEX 01 01:05:22
  TRACK 58 AUDIO
    TITLE "2Q_t_0971-0987_58"
    INDEX 01 01:05:69
  TRACK 59 AUDIO
    TITLE "2Q_t_0971-0987_59"
    INDEX 01 01:07:07
  TRACK 60 AUDIO
    TITLE "2Q_t_0971-0987_60"
    INDEX 01 01:07:52
  TRACK 61 AUDIO
    TITLE "2Q_t_0971-0987_61"
    INDEX 01 01:08:57
  TRACK 62 AUDIO
    TITLE "2Q_t_0971-0987_62"
    INDEX 01 01:09:31
  TRACK 63 AUDIO
    TITLE "2Q_t_0971-0987_63"
    INDEX 01 01:11:73
  TRACK 64 AUDIO
    TITLE "2Q_t_0971-0987_64"
    INDEX 01 01:12:41
  TRACK 65 AUDIO
    TITLE "2Q_t_0971-0987_65"
    INDEX 01 01:13:66
  TRACK 66 AUDIO
    TITLE "2Q_t_0971-0987_66"
    INDEX 01 01:14:40
  TRACK 67 AUDIO
    TITLE "2Q_t_0971-0987_67"
    INDEX 01 01:17:05
  TRACK 68 AUDIO
    TITLE "2Q_t_0971-0987_68"
    INDEX 01 01:17:50
  TRACK 69 AUDIO
    TITLE "2Q_t_0971-0987_69"
    INDEX 01 01:19:16
  TRACK 70 AUDIO
    TITLE "2Q_t_0971-0987_70"
    INDEX 01 01:19:63
  TRACK 71 AUDIO
    TITLE "2Q_t_0971-0987_71"
    INDEX 01 01:21:07
